<?xml version="1.0" encoding="UTF-8"?>
<svg id="ya" xmlns="http://www.w3.org/2000/svg" width="59.91mm" height="55mm" viewBox="0 0 169.84 155.91">
  <path d="M9,53.91H0s0-33.05,0-33.05H15.48c2.66,0,5.59,.39,7.85,2.02,2.53,1.73,3.73,4.67,3.73,7.9,0,4.34-1.77,6.94-5.37,8.72l5.5,14.4h-10.38s-4.44-12.62-4.44-12.62h-3.38s0,12.62,0,12.62Zm0-19.7h3.87c2.04,0,4.48-.34,4.48-3.18,0-1.11-.53-2.17-1.46-2.7-.8-.43-1.77-.43-2.66-.43h-4.22s0,6.31,0,6.31Z" fill="#fff"/>
  <path d="M45.4,53.82h-9.1v-8.53h9.1v8.53Z" fill="#fff"/>
  <path d="M72.82,39.91v14.01h-9.46v-14.01l-10.71-19.13h10.71l5.56,10.92,5.33-10.92h8.53l-9.97,19.13Z" fill="#fff"/>
  <path d="M105.74,47.22h-8.69l-1.99,6.49h-8.12l10.12-32.97h10.54l10.21,32.97h-10.21l-1.85-6.49Zm-1.71-7.21l-2.66-9.57-2.66,9.57h5.32Z" fill="#fff"/>
  <path d="M8.76,95.25H-.24s0-33.05,0-33.05H15.24c2.66,0,5.59,.39,7.85,2.02,2.53,1.73,3.73,4.67,3.73,7.9,0,4.34-1.77,6.94-5.37,8.72l5.5,14.4h-10.38s-4.44-12.62-4.44-12.62h-3.38s0,12.62,0,12.62Zm0-19.7h3.87c2.04,0,4.48-.34,4.48-3.18,0-1.11-.53-2.17-1.46-2.7-.8-.43-1.77-.43-2.66-.43h-4.22s0,6.31,0,6.31Z" fill="#fff"/>
  <path d="M45.16,95.16h-9.1v-8.53h9.1v8.53Z" fill="#fff"/>
  <path d="M72.94,81.24v14.01h-9.46v-14.01l-10.71-19.13h10.71l5.56,10.92,5.33-10.92h8.53l-9.97,19.13Z" fill="#fff"/>
  <path d="M105.86,88.55h-8.69l-1.99,6.49h-8.12l10.12-32.97h10.54l10.21,32.97h-10.21l-1.85-6.49Zm-1.71-7.21l-2.66-9.57-2.66,9.57h5.32Z" fill="#fff"/>
  <path d="M8.76,136.24H-.24s0-33.05,0-33.05H15.24c2.66,0,5.59,.39,7.85,2.02,2.53,1.73,3.73,4.67,3.73,7.9,0,4.34-1.77,6.94-5.37,8.72l5.5,14.4h-10.38s-4.44-12.62-4.44-12.62h-3.38s0,12.62,0,12.62Zm0-19.7h3.87c2.04,0,4.48-.34,4.48-3.18,0-1.11-.53-2.17-1.46-2.7-.8-.43-1.77-.43-2.66-.43h-4.22s0,6.31,0,6.31Z" fill="#fff"/>
  <path d="M45.16,136.15h-9.1v-8.53h9.1v8.53Z" fill="#fff"/>
  <path d="M72.94,122.23v14.01h-9.46v-14.01l-10.71-19.13h10.71l5.56,10.92,5.33-10.92h8.53l-9.97,19.13Z" fill="#fff"/>
  <path d="M105.86,129.54h-8.69l-1.99,6.49h-8.12l10.12-32.97h10.54l10.21,32.97h-10.21l-1.85-6.49Zm-1.71-7.21l-2.66-9.57-2.66,9.57h5.32Z" fill="#fff"/>
  <path d="M129.67,20.74l8.85,74.43h23.47l7.84-74.43h-40.16Zm25.57,67.28h-10.16l-6.76-60.13h22.64l-5.72,60.13Z" fill="#fff"/>
  <path d="M133.7,103.06v33.16h32.91v-33.16h-32.91Zm25.45,26.01h-17.59v-19.33h17.59v19.33Z" fill="#fff"/>
</svg>